<svg width="152" height="32" viewBox="0 0 152 32" fill="none" xmlns="http://www.w3.org/2000/svg">
<g clip-path="url(#clip0_283_595)">
<path d="M23.7362 21.3113C23.7362 27.6153 18.8498 31.3402 11.1681 31.3402H0V11.281H11.1687C18.8526 11.281 23.7369 15.0073 23.7369 21.3113M17.7952 21.3113C17.7952 17.7579 14.9964 15.7515 10.7113 15.7515H5.82496V26.8698H10.7113C14.9964 26.8698 17.7952 24.864 17.7952 21.3113Z" fill="black"/>
<path d="M48.8752 26.8705V31.3409H27.5381V11.281H48.8759V15.7535H33.3651V19.1782H45.9617V23.4471H33.3651V26.8718L48.8752 26.8705Z" fill="black"/>
<path d="M122.133 27.9162H110.651L108.988 31.3402H102.875L113.214 11.281H119.584L129.925 31.3402H123.812L122.133 27.9162ZM119.953 23.4471L116.395 16.1525L112.83 23.4471H119.953Z" fill="black"/>
<path d="M71.0097 24.1777C69.6103 26.3258 67.5532 27.2415 64.8684 27.2415C60.7551 27.2415 58.014 25.1499 58.014 21.3106C58.014 17.4713 60.7558 15.3784 64.8684 15.3784C67.5539 15.3784 69.5811 16.352 70.8956 18.4156L75.856 15.7501L75.875 15.7658C74.0548 12.9334 70.0819 10.6213 64.954 10.6213C57.1846 10.6213 52.1001 14.547 52.1001 21.3106C52.1001 28.0742 57.1846 32 64.7232 32C70.0514 32 74.0406 29.7648 75.9293 26.8684L71.0097 24.1777Z" fill="black"/>
<path d="M97.2062 24.1777C95.8068 26.3258 93.7498 27.2415 91.065 27.2415C86.9516 27.2415 84.2105 25.1499 84.2105 21.3106C84.2105 17.4713 86.9523 15.3784 91.065 15.3784C93.7498 15.3784 95.7776 16.352 97.0922 18.4156L102.053 15.7501L102.072 15.7658C100.251 12.9334 96.2785 10.6213 91.1505 10.6213C83.3812 10.6213 78.2966 14.547 78.2966 21.3106C78.2966 28.0742 83.3812 32 90.9197 32C96.2479 32 100.237 29.7648 102.126 26.8684L97.2062 24.1777Z" fill="black"/>
<path d="M135.097 7.5023L132.839 4.71898L148.864 0L149.655 1.87302L148.917 2.25906C144.724 4.45427 141.059 7.54033 138.178 11.3021L135.097 7.5023Z" fill="black"/>
<path d="M149.741 15.9435L151.999 18.7268L135.973 23.4458L135.183 21.5728L135.921 21.1867C140.113 18.9925 143.778 15.9076 146.66 12.1471L149.741 15.9435Z" fill="black"/>
</g>
<defs>
<clipPath id="clip0_283_595">
<rect width="152" height="32" fill="white"/>
</clipPath>
</defs>
</svg>
