<svg width="250" height="252" viewBox="0 0 250 252" fill="none" xmlns="http://www.w3.org/2000/svg">
<g filter="url(#filter0_d_283_605)">
<path d="M103.752 42.3511L95.4787 30.3119L162.17 16.3905L164.773 24.2539L161.648 25.5801C143.887 33.1226 127.98 44.4546 115.035 58.7862L103.752 42.3511Z" fill="white"/>
<path d="M44.9902 103.775L30.4615 105.436L49.3942 39.9649L57.571 41.3554L57.2801 44.7397C55.631 63.976 58.2035 83.3523 64.8184 101.518L44.9902 103.775Z" fill="white"/>
<path d="M141.257 201.775L149.531 213.817L82.836 227.744L80.236 219.879L83.3613 218.552C101.121 211.011 117.028 199.68 129.974 185.349L141.257 201.775Z" fill="white"/>
<path d="M203.684 145.501L218.213 143.84L199.278 209.314L191.103 207.921L191.394 204.537C193.046 185.304 190.477 165.93 183.867 147.766L203.684 145.501Z" fill="white"/>
<path d="M66.0719 63.0168L52.8097 56.8559L103.112 10.871L109.363 16.3223L107.35 19.058C95.9093 34.6102 87.9977 52.4839 84.1666 71.4331L66.0719 63.0168Z" fill="white"/>
<path d="M45.4284 147.101L33.7717 155.931L16.7154 89.946L24.4602 86.9776L25.9337 90.0381C34.3129 107.432 46.3964 122.796 61.3419 135.059L45.4284 147.101Z" fill="white"/>
<path d="M46.1169 148.916L34.4602 157.746L17.4039 91.7609L25.1487 88.7925L26.6222 91.853C35.0014 109.247 47.0848 124.611 62.0303 136.874L46.1169 148.916Z" fill="white"/>
<path d="M67.9201 185.361L62.24 198.836L14.4763 150.22L19.6993 143.777L22.5057 145.69C38.4591 156.564 56.6057 163.828 75.6804 166.975L67.9201 185.361Z" fill="white"/>
<path d="M104.907 205.28L106.726 219.79L41.0528 201.568L42.3546 193.377L45.7418 193.631C64.9949 195.072 84.3422 192.289 102.435 185.477L104.907 205.28Z" fill="white"/>
<path d="M179.705 181.39L192.967 187.551L142.663 233.537L136.414 228.084L138.427 225.349C149.868 209.801 157.782 191.931 161.617 172.986L179.705 181.39Z" fill="white"/>
<path d="M203.246 102.175L214.903 93.3457L231.959 159.333L224.214 162.299L222.741 159.238C214.366 141.846 202.287 126.482 187.346 114.218L203.246 102.175Z" fill="white"/>
<path d="M203.935 103.99L215.591 95.1606L232.647 161.148L224.903 164.114L223.429 161.053C215.054 143.661 202.975 128.297 188.035 116.033L203.935 103.99Z" fill="white"/>
<path d="M182.131 67.5454L187.811 54.0703L235.576 102.689L230.352 109.13L227.545 107.216C211.596 96.3414 193.454 89.0754 174.383 85.9244L182.131 67.5454Z" fill="white"/>
<path d="M144.909 46.143L143.091 31.6332L208.766 49.8559L207.462 58.0459L204.074 57.7917C184.825 56.3486 165.48 59.1272 147.389 65.9338L144.909 46.143Z" fill="white"/>
</g>
<defs>
<filter id="filter0_d_283_605" x="0.476318" y="0.870941" width="249.1" height="250.666" filterUnits="userSpaceOnUse" color-interpolation-filters="sRGB">
<feFlood flood-opacity="0" result="BackgroundImageFix"/>
<feColorMatrix in="SourceAlpha" type="matrix" values="0 0 0 0 0 0 0 0 0 0 0 0 0 0 0 0 0 0 127 0" result="hardAlpha"/>
<feOffset dy="4"/>
<feGaussianBlur stdDeviation="7"/>
<feComposite in2="hardAlpha" operator="out"/>
<feColorMatrix type="matrix" values="0 0 0 0 0 0 0 0 0 0 0 0 0 0 0 0 0 0 0.25 0"/>
<feBlend mode="normal" in2="BackgroundImageFix" result="effect1_dropShadow_283_605"/>
<feBlend mode="normal" in="SourceGraphic" in2="effect1_dropShadow_283_605" result="shape"/>
</filter>
</defs>
</svg>
